<?xml version="1.0" encoding="iso-8859-1"?>
<!-- Generator: Adobe Illustrator 16.0.0, SVG Export Plug-In . SVG Version: 6.00 Build 0)  -->
<!DOCTYPE svg PUBLIC "-//W3C//DTD SVG 1.1//EN" "http://www.w3.org/Graphics/SVG/1.1/DTD/svg11.dtd">
<svg version="1.1" id="Capa_1" xmlns="http://www.w3.org/2000/svg" xmlns:xlink="http://www.w3.org/1999/xlink" x="0px" y="0px"
	 width="477.398px" height="477.398px" viewBox="0 0 477.398 477.398" style="enable-background:new 0 0 477.398 477.398;"
	 xml:space="preserve">
<g>
	<g>
		<path d="M 19.9448 39.7915 l -5.4711 4.7837 l 0.4634 2.2726 l 5.6451 0.0093 l 0.7851 -0.5892 c 0.3438 1.2275 0.9325 1.472 0.9325 1.472 h 1.5701 H 25.44 c 0 0 0.5887 -0.2444 0.9321 -1.472 l 0.7851 0.5892 l 5.6456 -0.0093 l 0.4629 -2.2726 l -5.4705 -4.7837 v -2.2569 h 10.9903 v -2.3552 c 0 0 -0.2981 -0.2653 -0.7851 -0.7005 v -1.6547 l -0.4416 -0.9811 c 0 0 -0.3435 -3.8271 -0.3435 -5.2501 c 0 1.423 -0.3435 5.2501 -0.3435 5.2501 l -0.4416 0.9811 v 0.2408 c -2.8885 -2.6137 -7.4361 -6.8018 -7.703 -7.5022 c 0 0 -0.0481 -6.2314 -2.8457 -9.3714 c 0 0 0.3442 -13.787 -2.0109 -16.1914 c -2.4531 2.4036 -2.0113 16.1914 -2.0113 16.1914 c -2.7962 3.14 -2.8457 9.3714 -2.8457 9.3714 c -0.2669 0.7005 -4.8153 4.8895 -7.7029 7.5022 v -0.2408 l -0.4412 -0.9811 c 0 0 -0.3438 -3.8271 -0.3438 -5.2501 c 0 1.423 -0.3438 5.2501 -0.3438 5.2501 l -0.4426 0.9811 v 1.6547 c -0.4869 0.4368 -0.7851 0.7005 -0.7851 0.7005 v 2.3552 h 10.9905 V 39.7915 z"/>
	</g>
</g>
</svg>
